<svg xmlns="http://www.w3.org/2000/svg" xmlns:xlink="http://www.w3.org/1999/xlink" viewBox="0 0 1920 4897"><defs><style>.a{clip-path:url(#ab);}.b{fill:#fff;}.c,.d,.e,.f,.k{opacity:0.13;}.c{fill:url(#b);}.d{fill:url(#e);}.e{fill:url(#h);}.f{fill:url(#k);}.g{fill:url(#n);}.h,.i{opacity:0.23;}.h{fill:url(#o);}.i{fill:url(#r);}.j{fill:url(#s);}.k{fill:url(#t);}.l{fill:url(#x);}.m{fill:url(#y);}.n{fill:url(#z);}.o{fill:url(#a);}.p{filter:url(#u);}.q{filter:url(#p);}.r{filter:url(#l);}.s{filter:url(#i);}.t{filter:url(#f);}.u{filter:url(#c);}</style><linearGradient id="a" x1="-0.08" y1="-0.055" x2="0.713" y2="0.758" gradientUnits="objectBoundingBox"><stop offset="0" stop-color="#373d97"/><stop offset="0.381" stop-color="#b1b7d9"/><stop offset="0.967" stop-color="#797ce9"/><stop offset="1" stop-color="#6a6ee9"/></linearGradient><linearGradient id="b" x1="0.005" y1="-0.067" x2="1.002" y2="0.966" gradientUnits="objectBoundingBox"><stop offset="0" stop-color="#b7f9b7"/><stop offset="1" stop-color="#2699fb"/></linearGradient><filter id="c" x="1511.392" y="161.662" width="394.472" height="263.069" filterUnits="userSpaceOnUse"><feOffset dy="3" input="SourceAlpha"/><feGaussianBlur stdDeviation="3" result="d"/><feFlood flood-color="#04472a" flood-opacity="0.157"/><feComposite operator="in" in2="d"/><feComposite in="SourceGraphic"/></filter><linearGradient id="e" x1="0.003" y1="-0.043" x2="0.996" y2="1.064" xlink:href="#b"/><filter id="f" x="1511" y="406.661" width="394.472" height="263.069" filterUnits="userSpaceOnUse"><feOffset dy="3" input="SourceAlpha"/><feGaussianBlur stdDeviation="3" result="g"/><feFlood flood-color="#04472a" flood-opacity="0.157"/><feComposite operator="in" in2="g"/><feComposite in="SourceGraphic"/></filter><linearGradient id="h" x1="0.997" y1="1.044" x2="0.002" y2="-0.026" xlink:href="#b"/><filter id="i" x="30.528" y="322.662" width="394.472" height="263.069" filterUnits="userSpaceOnUse"><feOffset dy="3" input="SourceAlpha"/><feGaussianBlur stdDeviation="3" result="j"/><feFlood flood-color="#04472a" flood-opacity="0.161"/><feComposite operator="in" in2="j"/><feComposite in="SourceGraphic"/></filter><linearGradient id="k" x1="1.005" y1="0.92" x2="-0.005" y2="0.072" xlink:href="#b"/><filter id="l" x="14.528" y="609.662" width="394.472" height="263.069" filterUnits="userSpaceOnUse"><feOffset dy="3" input="SourceAlpha"/><feGaussianBlur stdDeviation="3" result="m"/><feFlood flood-color="#04472a" flood-opacity="0.157"/><feComposite operator="in" in2="m"/><feComposite in="SourceGraphic"/></filter><linearGradient id="n" x1="0.188" y1="-0.145" x2="0.542" y2="0.79" gradientUnits="objectBoundingBox"><stop offset="0" stop-color="#b9fbe0"/><stop offset="0.689" stop-color="#e4f5f3"/><stop offset="1" stop-color="#fff"/></linearGradient><linearGradient id="o" x1="1.104" y1="-0.019" x2="-0.208" y2="1.147" xlink:href="#b"/><filter id="p" x="-416.247" y="642.859" width="2856.495" height="1911.417" filterUnits="userSpaceOnUse"><feOffset dy="3" input="SourceAlpha"/><feGaussianBlur stdDeviation="3" result="q"/><feFlood flood-opacity="0.161"/><feComposite operator="in" in2="q"/><feComposite in="SourceGraphic"/></filter><linearGradient id="r" x1="-0.032" y1="-0.053" x2="1.026" y2="0.99" xlink:href="#b"/><linearGradient id="s" x1="0.969" y1="-0.223" x2="0.018" y2="0.903" gradientUnits="objectBoundingBox"><stop offset="0" stop-color="#bbf9e8"/><stop offset="0.414" stop-color="#e4f5f3"/><stop offset="1" stop-color="#fff"/></linearGradient><linearGradient id="t" x1="0.962" y1="0.603" x2="0.002" y2="-0.026" gradientUnits="objectBoundingBox"><stop offset="0" stop-color="#effcef"/><stop offset="0.305" stop-color="#93e9bf"/><stop offset="1" stop-color="#2699fb"/></linearGradient><filter id="u" x="4.528" y="86.269" width="414.472" height="297.71" filterUnits="userSpaceOnUse"><feOffset dy="3" input="SourceAlpha"/><feGaussianBlur stdDeviation="3" result="v"/><feFlood flood-color="#04472a" flood-opacity="0.161"/><feComposite operator="in" in2="v"/><feComposite in="SourceGraphic"/></filter><linearGradient id="x" x1="0.057" y1="-0.048" x2="0.542" y2="0.79" gradientUnits="objectBoundingBox"><stop offset="0" stop-color="#b9fbe0"/><stop offset="0.537" stop-color="#e4f5f3"/><stop offset="1" stop-color="#fff"/></linearGradient><linearGradient id="y" x1="0.188" y1="-0.145" x2="0.276" y2="0.405" xlink:href="#n"/><linearGradient id="z" x1="0.531" y1="0.059" x2="0.744" y2="1.114" gradientUnits="objectBoundingBox"><stop offset="0" stop-color="#8f93e3"/><stop offset="0.095" stop-color="#8689e6"/><stop offset="0.513" stop-color="#fff"/><stop offset="1" stop-color="#fff"/></linearGradient><clipPath id="ab"><rect width="1920" height="4897"/></clipPath></defs><g id="aa" class="a"><rect class="o" width="1920" height="4897"/><g transform="translate(240 -21)"><path class="b" d="M0,10.149,3.422,4.839.354,0h2.36L4.72,3.3,6.727,0h2.36L6.019,4.957l3.422,5.193H6.963L4.72,6.609l-2.242,3.54ZM10.5,0h3.658A6.687,6.687,0,0,1,16.05.236,2.923,2.923,0,0,1,17.7,1.18a3.8,3.8,0,0,1,.944,1.652A7.1,7.1,0,0,1,19,5.193a5.717,5.717,0,0,1-.354,2.124,4.444,4.444,0,0,1-1.062,1.77,4.081,4.081,0,0,1-1.416.826,7.143,7.143,0,0,1-1.77.236H10.5Zm2.006,1.77V8.5h1.534a2.96,2.96,0,0,0,1.18-.118,1.9,1.9,0,0,0,.826-.472,3.267,3.267,0,0,0,.59-.944,4.324,4.324,0,0,0,.236-1.888A5.749,5.749,0,0,0,16.64,3.3a2.57,2.57,0,0,0-.59-.944,2.372,2.372,0,0,0-.944-.472,5.364,5.364,0,0,0-1.652-.118h-.944Z" transform="translate(40.482 51.341)"/></g><g class="u" transform="matrix(1, 0, 0, 1, 0, 0)"><rect class="c" width="407" height="48" transform="translate(1520.39 371.16) rotate(-30)"/></g><g class="t" transform="matrix(1, 0, 0, 1, 0, 0)"><rect class="d" width="407" height="48" transform="translate(1520 616.16) rotate(-30)"/></g><g class="s" transform="matrix(1, 0, 0, 1, 0, 0)"><rect class="e" width="407" height="48" transform="translate(39.53 532.16) rotate(-30)"/></g><g class="r" transform="matrix(1, 0, 0, 1, 0, 0)"><rect class="f" width="407" height="48" transform="translate(23.53 819.16) rotate(-30)"/></g><ellipse class="g" cx="1018.5" cy="289" rx="1018.5" ry="289" transform="translate(2011.449 234.985) rotate(177)"/><g class="q" transform="matrix(1, 0, 0, 1, 0, 0)"><rect class="h" width="3023" height="441" transform="translate(-407.25 2160.36) rotate(-30)"/></g><rect class="i" width="1880" height="405" rx="65" transform="translate(165.074 1102.629) rotate(60)"/><rect class="j" width="1604" height="114" rx="7" transform="translate(347.846 -0.121)"/><g class="p" transform="matrix(1, 0, 0, 1, 0, 0)"><rect class="k" width="407" height="88" transform="translate(13.53 295.77) rotate(-30)"/></g><rect class="g" width="934" height="697" transform="translate(-381.368 -87.06) rotate(-30)"/><circle class="l" cx="446.5" cy="446.5" r="446.5" transform="translate(2096.707 714.718) rotate(111)"/><ellipse class="m" cx="1633.5" cy="643.5" rx="1633.5" ry="643.5" transform="translate(2582.816 4437.143) rotate(177)"/><path class="n" d="M0,0H1920V696.888H0Z" transform="translate(0 2933.123)"/></g></svg>