<svg xmlns="http://www.w3.org/2000/svg" xmlns:xlink="http://www.w3.org/1999/xlink" viewBox="0 0 1920 3240"><defs><style>.a{fill:none;}.b{clip-path:url(#u);}.c{fill:#fff;}.d{fill:url(#a);}.e{fill:url(#d);}.f{fill:url(#g);}.g{fill:url(#j);}.h{clip-path:url(#m);}.i,.j{opacity:0.47;}.i{fill:url(#n);}.j{fill:url(#q);}.k{fill:#7fc4fd;}.l{filter:url(#r);}.m{filter:url(#o);}.n{filter:url(#k);}.o{filter:url(#h);}.p{filter:url(#e);}.q{filter:url(#b);}</style><linearGradient id="a" x1="0.005" y1="-0.067" x2="1.002" y2="0.966" gradientUnits="objectBoundingBox"><stop offset="0" stop-color="#b7f9b7"/><stop offset="1" stop-color="#2699fb"/></linearGradient><filter id="b" x="1511.392" y="161.662" width="394.472" height="263.069" filterUnits="userSpaceOnUse"><feOffset dy="3" input="SourceAlpha"/><feGaussianBlur stdDeviation="3" result="c"/><feFlood flood-opacity="0.161"/><feComposite operator="in" in2="c"/><feComposite in="SourceGraphic"/></filter><linearGradient id="d" x1="0.003" y1="-0.043" x2="0.996" y2="1.064" xlink:href="#a"/><filter id="e" x="1511" y="406.661" width="394.472" height="263.069" filterUnits="userSpaceOnUse"><feOffset dy="3" input="SourceAlpha"/><feGaussianBlur stdDeviation="3" result="f"/><feFlood flood-opacity="0.161"/><feComposite operator="in" in2="f"/><feComposite in="SourceGraphic"/></filter><linearGradient id="g" x1="0.997" y1="1.044" x2="0.002" y2="-0.026" xlink:href="#a"/><filter id="h" x="14.528" y="364.662" width="394.472" height="263.069" filterUnits="userSpaceOnUse"><feOffset dy="3" input="SourceAlpha"/><feGaussianBlur stdDeviation="3" result="i"/><feFlood flood-opacity="0.161"/><feComposite operator="in" in2="i"/><feComposite in="SourceGraphic"/></filter><linearGradient id="j" x1="1.005" y1="0.92" x2="-0.005" y2="0.072" xlink:href="#a"/><filter id="k" x="14.528" y="609.662" width="394.472" height="263.069" filterUnits="userSpaceOnUse"><feOffset dy="3" input="SourceAlpha"/><feGaussianBlur stdDeviation="3" result="l"/><feFlood flood-opacity="0.161"/><feComposite operator="in" in2="l"/><feComposite in="SourceGraphic"/></filter><clipPath id="m"><rect class="a" width="2943.495" height="2427.398"/></clipPath><linearGradient id="n" x1="1.104" y1="-0.019" x2="-0.208" y2="1.147" xlink:href="#a"/><filter id="o" x="-430.247" y="533.859" width="2961.495" height="2093.282" filterUnits="userSpaceOnUse"><feOffset dy="3" input="SourceAlpha"/><feGaussianBlur stdDeviation="3" result="p"/><feFlood flood-opacity="0.161"/><feComposite operator="in" in2="p"/><feComposite in="SourceGraphic"/></filter><linearGradient id="q" x1="-0.032" y1="-0.053" x2="1.026" y2="0.99" xlink:href="#a"/><filter id="r" x="-292.283" y="1007.629" width="1521.782" height="1971.628" filterUnits="userSpaceOnUse"><feOffset dy="3" input="SourceAlpha"/><feGaussianBlur stdDeviation="3" result="s"/><feFlood flood-opacity="0.161"/><feComposite operator="in" in2="s"/><feComposite in="SourceGraphic"/></filter><clipPath id="u"><rect width="1920" height="3240"/></clipPath></defs><g id="t" class="b"><rect class="k" width="1920" height="3240"/><g transform="translate(240 -21)"><path class="c" d="M0,10.149,3.422,4.839.354,0h2.36L4.72,3.3,6.727,0h2.36L6.019,4.957l3.422,5.193H6.963L4.72,6.609l-2.242,3.54ZM10.5,0h3.658A6.687,6.687,0,0,1,16.05.236,2.923,2.923,0,0,1,17.7,1.18a3.8,3.8,0,0,1,.944,1.652A7.1,7.1,0,0,1,19,5.193a5.717,5.717,0,0,1-.354,2.124,4.444,4.444,0,0,1-1.062,1.77,4.081,4.081,0,0,1-1.416.826,7.143,7.143,0,0,1-1.77.236H10.5Zm2.006,1.77V8.5h1.534a2.96,2.96,0,0,0,1.18-.118,1.9,1.9,0,0,0,.826-.472,3.267,3.267,0,0,0,.59-.944,4.324,4.324,0,0,0,.236-1.888A5.749,5.749,0,0,0,16.64,3.3a2.57,2.57,0,0,0-.59-.944,2.372,2.372,0,0,0-.944-.472,5.364,5.364,0,0,0-1.652-.118h-.944Z" transform="translate(40.482 51.341)"/></g><g class="q" transform="matrix(1, 0, 0, 1, 0, 0)"><rect class="d" width="407" height="48" transform="translate(1520.39 371.16) rotate(-30)"/></g><g class="p" transform="matrix(1, 0, 0, 1, 0, 0)"><rect class="e" width="407" height="48" transform="translate(1520 616.16) rotate(-30)"/></g><g class="o" transform="matrix(1, 0, 0, 1, 0, 0)"><rect class="f" width="407" height="48" transform="translate(23.53 574.16) rotate(-30)"/></g><g class="n" transform="matrix(1, 0, 0, 1, 0, 0)"><rect class="g" width="407" height="48" transform="translate(23.53 819.16) rotate(-30)"/></g><rect class="c" width="865" height="697" transform="translate(-421.612 -216.56) rotate(-30)"/><g class="h" transform="translate(-421.247 539.859)"><g transform="translate(421.247 -539.859)"><g class="m" transform="matrix(1, 0, 0, 1, 0, 0)"><rect class="i" width="3023" height="651" transform="translate(-421.25 2051.36) rotate(-30)"/></g><g class="l" transform="matrix(1, 0, 0, 1, 0, 0)"><rect class="j" width="1880" height="651" rx="65" transform="translate(280.5 1013.63) rotate(60)"/></g></g></g></g></svg>