<svg xmlns="http://www.w3.org/2000/svg" xmlns:xlink="http://www.w3.org/1999/xlink" viewBox="0 0 1920 3240">
  <defs>
    <style>
      .cls-1 {
        fill: none;
      }

      .cls-2 {
        clip-path: url(#clip-Web_1920_1);
      }

      .cls-3 {
        fill: #fff;
      }

      .cls-4 {
        fill: url(#linear-gradient-2);
      }

      .cls-5 {
        fill: url(#linear-gradient-3);
      }

      .cls-12, .cls-6 {
        fill: url(#linear-gradient-4);
      }

      .cls-7 {
        fill: url(#linear-gradient-5);
      }

      .cls-8 {
        fill: url(#linear-gradient-6);
      }

      .cls-9 {
        clip-path: url(#clip-path);
      }

      .cls-10, .cls-11 {
        opacity: 0.47;
      }

      .cls-10 {
        fill: url(#linear-gradient-7);
      }

      .cls-11 {
        fill: url(#linear-gradient-8);
      }

      .cls-12 {
        opacity: 0.17;
      }

      .cls-13 {
        fill: url(#linear-gradient-10);
      }

      .cls-14 {
        fill: url(#linear-gradient);
      }

      .cls-15 {
        filter: url(#Rectangle_1101);
      }

      .cls-16 {
        filter: url(#Rectangle_1100);
      }

      .cls-17 {
        filter: url(#Rectangle_1099);
      }

      .cls-18 {
        filter: url(#Rectangle_1097);
      }

      .cls-19 {
        filter: url(#Rectangle_1096);
      }

      .cls-20 {
        filter: url(#Rectangle_1095);
      }

      .cls-21 {
        filter: url(#Rectangle_1094);
      }
    </style>
    <linearGradient id="linear-gradient" x1="-0.08" y1="-0.055" x2="1.081" y2="1" gradientUnits="objectBoundingBox">
      <stop offset="0" stop-color="#7fc4fd"/>
      <stop offset="0.519" stop-color="#c2e0f9"/>
      <stop offset="1" stop-color="#6eb7f5"/>
    </linearGradient>
    <linearGradient id="linear-gradient-2" x1="0.005" y1="-0.067" x2="1.002" y2="0.966" gradientUnits="objectBoundingBox">
      <stop offset="0" stop-color="#b7f9b7"/>
      <stop offset="1" stop-color="#2699fb"/>
    </linearGradient>
    <filter id="Rectangle_1094" x="1511.392" y="161.662" width="394.472" height="263.069" filterUnits="userSpaceOnUse">
      <feOffset dy="3" input="SourceAlpha"/>
      <feGaussianBlur stdDeviation="3" result="blur"/>
      <feFlood flood-color="#04472a" flood-opacity="0.157"/>
      <feComposite operator="in" in2="blur"/>
      <feComposite in="SourceGraphic"/>
    </filter>
    <linearGradient id="linear-gradient-3" x1="0.003" y1="-0.043" x2="0.996" y2="1.064" xlink:href="#linear-gradient-2"/>
    <filter id="Rectangle_1095" x="1511" y="406.661" width="394.472" height="263.069" filterUnits="userSpaceOnUse">
      <feOffset dy="3" input="SourceAlpha"/>
      <feGaussianBlur stdDeviation="3" result="blur-2"/>
      <feFlood flood-color="#04472a" flood-opacity="0.157"/>
      <feComposite operator="in" in2="blur-2"/>
      <feComposite in="SourceGraphic"/>
    </filter>
    <linearGradient id="linear-gradient-4" x1="0.997" y1="1.044" x2="0.002" y2="-0.026" xlink:href="#linear-gradient-2"/>
    <filter id="Rectangle_1096" x="30.528" y="322.662" width="394.472" height="263.069" filterUnits="userSpaceOnUse">
      <feOffset dy="3" input="SourceAlpha"/>
      <feGaussianBlur stdDeviation="3" result="blur-3"/>
      <feFlood flood-color="#04472a" flood-opacity="0.161"/>
      <feComposite operator="in" in2="blur-3"/>
      <feComposite in="SourceGraphic"/>
    </filter>
    <linearGradient id="linear-gradient-5" x1="1.005" y1="0.92" x2="-0.005" y2="0.072" xlink:href="#linear-gradient-2"/>
    <filter id="Rectangle_1097" x="14.528" y="609.662" width="394.472" height="263.069" filterUnits="userSpaceOnUse">
      <feOffset dy="3" input="SourceAlpha"/>
      <feGaussianBlur stdDeviation="3" result="blur-4"/>
      <feFlood flood-color="#04472a" flood-opacity="0.157"/>
      <feComposite operator="in" in2="blur-4"/>
      <feComposite in="SourceGraphic"/>
    </filter>
    <linearGradient id="linear-gradient-6" x1="0.188" y1="-0.145" x2="0.542" y2="0.79" gradientUnits="objectBoundingBox">
      <stop offset="0" stop-color="#b9fbe0"/>
      <stop offset="0.689" stop-color="#e4f5f3"/>
      <stop offset="1" stop-color="#fff"/>
    </linearGradient>
    <clipPath id="clip-path">
      <rect class="cls-1" width="2943.495" height="2427.398"/>
    </clipPath>
    <linearGradient id="linear-gradient-7" x1="1.104" y1="-0.019" x2="-0.208" y2="1.147" xlink:href="#linear-gradient-2"/>
    <filter id="Rectangle_1099" x="-430.247" y="533.859" width="2961.495" height="2093.282" filterUnits="userSpaceOnUse">
      <feOffset dy="3" input="SourceAlpha"/>
      <feGaussianBlur stdDeviation="3" result="blur-5"/>
      <feFlood flood-opacity="0.161"/>
      <feComposite operator="in" in2="blur-5"/>
      <feComposite in="SourceGraphic"/>
    </filter>
    <linearGradient id="linear-gradient-8" x1="-0.032" y1="-0.053" x2="1.026" y2="0.99" xlink:href="#linear-gradient-2"/>
    <filter id="Rectangle_1100" x="-292.283" y="1007.629" width="1521.782" height="1971.628" filterUnits="userSpaceOnUse">
      <feOffset dy="3" input="SourceAlpha"/>
      <feGaussianBlur stdDeviation="3" result="blur-6"/>
      <feFlood flood-opacity="0.161"/>
      <feComposite operator="in" in2="blur-6"/>
      <feComposite in="SourceGraphic"/>
    </filter>
    <filter id="Rectangle_1101" x="-36.472" y="71.269" width="414.472" height="297.71" filterUnits="userSpaceOnUse">
      <feOffset dy="3" input="SourceAlpha"/>
      <feGaussianBlur stdDeviation="3" result="blur-7"/>
      <feFlood flood-color="#04472a" flood-opacity="0.161"/>
      <feComposite operator="in" in2="blur-7"/>
      <feComposite in="SourceGraphic"/>
    </filter>
    <linearGradient id="linear-gradient-10" x1="0.744" y1="-0.223" x2="0.542" y2="0.79" gradientUnits="objectBoundingBox">
      <stop offset="0" stop-color="#b9fbe0"/>
      <stop offset="0.414" stop-color="#e4f5f3"/>
      <stop offset="1" stop-color="#fff"/>
    </linearGradient>
    <clipPath id="clip-Web_1920_1">
      <rect width="1920" height="3240"/>
    </clipPath>
  </defs>
  <g id="Web_1920_1" data-name="Web 1920 – 1" class="cls-2">
    <rect class="cls-14" width="1920" height="3240"/>
    <g id="Logo" transform="translate(240 -21)">
      <path id="Path_197" data-name="Path 197" class="cls-3" d="M0,10.149,3.422,4.839.354,0h2.36L4.72,3.3,6.727,0h2.36L6.019,4.957l3.422,5.193H6.963L4.72,6.609l-2.242,3.54ZM10.5,0h3.658A6.687,6.687,0,0,1,16.05.236,2.923,2.923,0,0,1,17.7,1.18a3.8,3.8,0,0,1,.944,1.652A7.1,7.1,0,0,1,19,5.193a5.717,5.717,0,0,1-.354,2.124,4.444,4.444,0,0,1-1.062,1.77,4.081,4.081,0,0,1-1.416.826,7.143,7.143,0,0,1-1.77.236H10.5Zm2.006,1.77V8.5h1.534a2.96,2.96,0,0,0,1.18-.118,1.9,1.9,0,0,0,.826-.472,3.267,3.267,0,0,0,.59-.944,4.324,4.324,0,0,0,.236-1.888A5.749,5.749,0,0,0,16.64,3.3a2.57,2.57,0,0,0-.59-.944,2.372,2.372,0,0,0-.944-.472,5.364,5.364,0,0,0-1.652-.118h-.944Z" transform="translate(40.482 51.341)"/>
    </g>
    <g class="cls-21" transform="matrix(1, 0, 0, 1, 0, 0)">
      <rect id="Rectangle_1094-2" data-name="Rectangle 1094" class="cls-4" width="407" height="48" transform="translate(1520.39 371.16) rotate(-30)"/>
    </g>
    <g class="cls-20" transform="matrix(1, 0, 0, 1, 0, 0)">
      <rect id="Rectangle_1095-2" data-name="Rectangle 1095" class="cls-5" width="407" height="48" transform="translate(1520 616.16) rotate(-30)"/>
    </g>
    <g class="cls-19" transform="matrix(1, 0, 0, 1, 0, 0)">
      <rect id="Rectangle_1096-2" data-name="Rectangle 1096" class="cls-6" width="407" height="48" transform="translate(39.53 532.16) rotate(-30)"/>
    </g>
    <g class="cls-18" transform="matrix(1, 0, 0, 1, 0, 0)">
      <rect id="Rectangle_1097-2" data-name="Rectangle 1097" class="cls-7" width="407" height="48" transform="translate(23.53 819.16) rotate(-30)"/>
    </g>
    <rect id="Rectangle_1098" data-name="Rectangle 1098" class="cls-8" width="934" height="697" transform="translate(-465.368 -152.06) rotate(-30)"/>
    <g id="Repeat_Grid_1" data-name="Repeat Grid 1" class="cls-9" transform="translate(-421.247 539.859)">
      <g transform="translate(421.247 -539.859)">
        <g class="cls-17" transform="matrix(1, 0, 0, 1, 0, 0)">
          <rect id="Rectangle_1099-2" data-name="Rectangle 1099" class="cls-10" width="3023" height="651" transform="translate(-421.25 2051.36) rotate(-30)"/>
        </g>
        <g class="cls-16" transform="matrix(1, 0, 0, 1, 0, 0)">
          <rect id="Rectangle_1100-2" data-name="Rectangle 1100" class="cls-11" width="1880" height="651" rx="65" transform="translate(280.5 1013.63) rotate(60)"/>
        </g>
      </g>
    </g>
    <g class="cls-15" transform="matrix(1, 0, 0, 1, 0, 0)">
      <rect id="Rectangle_1101-2" data-name="Rectangle 1101" class="cls-12" width="407" height="88" transform="translate(-27.47 280.77) rotate(-30)"/>
    </g>
    <rect id="Rectangle_1102" data-name="Rectangle 1102" class="cls-13" width="315" height="212" rx="7" transform="translate(368.846 -135.121)"/>
  </g>
</svg>
